#!OML:ASF G:\JayActor3\Patient Classification 1\Patient 1\Session 5\male.ASF
:FULLY-SPECIFIED
:DEGREES
431
root 41.0786 15.1395 -5.15644 -70.1866 -87.6922 84.0712
lowerback 40.7041 -0.0465865 -0.0389189
upperback 9.77379 -1.62417 -1.9034
thorax -8.74342 -1.23117 -1.267
lowerneck 3.05318 0.548167 1.77297
upperneck -28.1112 0.568694 1.91448
head -9.3186 -0.581937 0.38318
rclavicle -1.98785e-016 -6.16232e-015
rhumerus -29.5189 1.61456 -89.0677
rradius 43.8981
rwrist -3.68734
rhand -19.4207 -8.37695
rfingers 7.12502
rthumb 6.89908 -38.2445
lclavicle -1.98785e-016 -6.16232e-015
lhumerus -26.1887 -2.01632 81.9844
lradius 41.6357
lwrist 25.3671
lhand -19.2529 12.0921
lfingers 7.12502
lthumb 7.06099 41.9543
rfemur -71.1096 -3.58555 16.519
rtibia 92.1199
rfoot 8.88631 -4.64824
rtoes -8.6307
lfemur -64.8819 12.3428 -30.9555
ltibia 78.435
lfoot 8.76525 -3.20346
ltoes -32.4083
432
root 40.9949 15.1348 -5.1582 -68.6256 -87.6054 82.3711
lowerback 40.7142 -0.0743181 -0.0374697
upperback 9.79634 -1.65771 -1.89162
thorax -8.72165 -1.24761 -1.24157
lowerneck 2.98916 0.557861 1.80905
upperneck -28.077 0.566595 1.84652
head -9.29395 -0.578622 0.353168
rclavicle 8.15017e-015 8.54774e-015
rhumerus -29.5122 1.64387 -89.059
rradius 43.7721
rwrist -3.67016
rhand -19.4108 -8.37145
rfingers 7.12502
rthumb 6.90859 -38.2387
lclavicle 8.15017e-015 8.54774e-015
lhumerus -26.2157 -1.97629 82.0233
lradius 41.5896
lwrist 25.3702
lhand -19.2112 12.1473
lfingers 7.12502
lthumb 7.1013 42.0082
rfemur -71.5048 -3.54255 16.4399
rtibia 91.1068
rfoot 8.55265 -4.48919
rtoes -9.06502
lfemur -64.541 12.4821 -31.0931
ltibia 78.6488
lfoot 8.62879 -2.90826
ltoes -32.4024
433
root 40.9112 15.132 -5.1608 -67.0418 -87.5247 80.6541
lowerback 40.7289 -0.101882 -0.0229024
upperback 9.81798 -1.68569 -1.8786
thorax -8.70238 -1.26151 -1.22383
lowerneck 2.92644 0.566018 1.8408
upperneck -28.049 0.563455 1.78536
head -9.27185 -0.576331 0.326457
rclavicle -3.27995e-014 -4.67144e-014
rhumerus -29.5047 1.64469 -89.0422
rradius 43.6463
rwrist -3.62673
rhand -19.3789 -8.36767
rfingers 7.12502
rthumb 6.93938 -38.2339
lclavicle -3.27995e-014 -4.67144e-014
lhumerus -26.2366 -1.94369 82.0641
lradius 41.5519
lwrist 25.3993
lhand -19.154 12.2069
lfingers 7.12502
lthumb 7.1565 42.0659
rfemur -71.8386 -3.48057 16.3365
rtibia 89.9922
rfoot 8.19471 -4.31009
rtoes -9.47785
lfemur -64.1695 12.6158 -31.2025
ltibia 78.8279
lfoot 8.45613 -2.60977
ltoes -32.3361
434
root 40.8275 15.1311 -5.1637 -65.3616 -87.4337 78.851
lowerback 40.7458 -0.135051 0.00446715
upperback 9.83779 -1.71553 -1.86998
thorax -8.68634 -1.27602 -1.21663
lowerneck 2.87015 0.571397 1.86388
upperneck -28.0342 0.558358 1.73635
head -9.25573 -0.575861 0.305802
rclavicle 3.10104e-014 2.68359e-014
rhumerus -29.4993 1.61944 -89.0175
rradius 43.5283
rwrist -3.57327
rhand -19.3248 -8.39023
rfingers 7.12502
rthumb 6.9916 -38.2548
lclavicle 3.10104e-014 2.68359e-014
lhumerus -26.2479 -1.92006 82.1069
lradius 41.5145
lwrist 25.449
lhand -19.0949 12.2641
lfingers 7.12502
lthumb 7.21351 42.1211
rfemur -72.1149 -3.41964 16.1901
rtibia 88.7831
rfoot 7.82944 -4.09068
rtoes -9.81416
lfemur -63.7645 12.7277 -31.3041
ltibia 78.9679
lfoot 8.24127 -2.3201
ltoes -32.301
435
root 40.744 15.1328 -5.16706 -63.5993 -87.3469 76.9799
lowerback 40.7608 -0.171733 0.051437
upperback 9.85523 -1.74135 -1.86177
thorax -8.6727 -1.28848 -1.2217
lowerneck 2.81861 0.572461 1.87774
upperneck -28.0279 0.549504 1.70114
head -9.24367 -0.577986 0.291941
rclavicle 3.10104e-014 2.64384e-014
rhumerus -29.4973 1.57257 -88.9867
rradius 43.4155
rwrist -3.52525
rhand -19.287 -8.40887
rfingers 7.12502
rthumb 7.02814 -38.2722
lclavicle 3.10104e-014 2.64384e-014
lhumerus -26.2507 -1.90642 82.1528
lradius 41.4782
lwrist 25.5097
lhand -19.0465 12.3339
lfingers 7.12502
lthumb 7.26022 42.1894
rfemur -72.3367 -3.34704 16.0197
rtibia 87.4804
rfoot 7.46897 -3.84754
rtoes -10.2037
lfemur -63.3336 12.8183 -31.3733
ltibia 79.0812
lfoot 7.98936 -2.02194
ltoes -32.1649
436
root 40.6604 15.1354 -5.17094 -61.8354 -87.2608 75.1243
lowerback 40.7707 -0.208678 0.116648
upperback 9.87066 -1.76012 -1.85787
thorax -8.66011 -1.2974 -1.24378
lowerneck 2.76764 0.56348 1.89802
upperneck -28.0267 0.52868 1.67326
head -9.2336 -0.587456 0.280605
rclavicle 9.74045e-015 7.35503e-015
rhumerus -29.501 1.49431 -88.9523
rradius 43.3137
rwrist -3.48399
rhand -19.2612 -8.43392
rfingers 7.12502
rthumb 7.05304 -38.2964
lclavicle 9.74045e-015 7.35503e-015
lhumerus -26.2483 -1.92025 82.201
lradius 41.4415
lwrist 25.5644
lhand -19.0265 12.3704
lfingers 7.12502
lthumb 7.27956 42.2252
rfemur -72.5209 -3.26663 15.825
rtibia 86.1053
rfoot 7.15013 -3.59837
rtoes -10.5916
lfemur -62.8995 12.8908 -31.4298
ltibia 79.1686
lfoot 7.72899 -1.73652
ltoes -32.1259
437
root 40.5772 15.1401 -5.17554 -59.977 -87.1887 73.1914
lowerback 40.7758 -0.244885 0.203378
upperback 9.88552 -1.76874 -1.85164
thorax -8.64678 -1.30161 -1.27874
lowerneck 2.71302 0.546016 1.92553
upperneck -28.0291 0.496684 1.64774
head -9.22418 -0.603467 0.269847
rclavicle 1.94809e-014 2.29596e-014
rhumerus -29.5033 1.39852 -88.9137
rradius 43.2169
rwrist -3.46
rhand -19.2513 -8.44533
rfingers 7.12502
rthumb 7.06257 -38.3075
lclavicle 1.94809e-014 2.29596e-014
lhumerus -26.2408 -1.95448 82.2533
lradius 41.4091
lwrist 25.6076
lhand -19.0342 12.3832
lfingers 7.12502
lthumb 7.27218 42.2382
rfemur -72.6642 -3.16784 15.6243
rtibia 84.6588
rfoot 6.90533 -3.39803
rtoes -10.9498
lfemur -62.4734 12.9524 -31.4642
ltibia 79.2295
lfoot 7.49735 -1.45546
ltoes -32.1915
438
root 40.4941 15.1468 -5.18092 -58.0396 -87.1219 71.1951
lowerback 40.7788 -0.281084 0.300279
upperback 9.90057 -1.773 -1.84441
thorax -8.63259 -1.30375 -1.31976
lowerneck 2.65126 0.521698 1.96117
upperneck -28.0316 0.455755 1.62453
head -9.21353 -0.624975 0.259257
rclavicle -1.27222e-014 -2.25621e-014
rhumerus -29.501 1.29569 -88.8751
rradius 43.1281
rwrist -3.43697
rhand -19.2414 -8.45915
rfingers 7.12502
rthumb 7.07215 -38.321
lclavicle -1.27222e-014 -2.25621e-014
lhumerus -26.2334 -1.99935 82.3046
lradius 41.385
lwrist 25.636
lhand -19.057 12.3656
lfingers 7.12502
lthumb 7.25016 42.2214
rfemur -72.7714 -3.06141 15.4155
rtibia 83.1571
rfoot 6.77298 -3.28371
rtoes -11.23
lfemur -62.0618 13.0031 -31.4848
ltibia 79.2777
lfoot 7.31074 -1.14527
ltoes -32.2237
439
root 40.4112 15.1549 -5.18728 -56.0258 -87.059 69.1329
lowerback 40.7846 -0.317103 0.401995
upperback 9.91668 -1.77505 -1.83545
thorax -8.61801 -1.30493 -1.36231
lowerneck 2.59323 0.493301 2.00302
upperneck -28.0445 0.409897 1.60336
head -9.20737 -0.650193 0.248837
rclavicle 1.63003e-014 1.21259e-014
rhumerus -29.489 1.1981 -88.838
rradius 43.041
rwrist -3.41327
rhand -19.2296 -8.46844
rfingers 7.12502
rthumb 7.08352 -38.3299
lclavicle 1.63003e-014 1.21259e-014
lhumerus -26.2294 -2.04853 82.3517
lradius 41.3752
lwrist 25.6527
lhand -19.0889 12.3215
lfingers 7.12502
lthumb 7.21938 42.1783
rfemur -72.8428 -2.94918 15.2013
rtibia 81.6131
rfoot 6.77421 -3.29456
rtoes -11.3975
lfemur -61.6705 13.0517 -31.4999
ltibia 79.3161
lfoot 7.19245 -0.800905
ltoes -32.2251
440
root 40.3282 15.1644 -5.195 -53.9601 -86.997 67.0303
lowerback 40.7946 -0.351559 0.495314
upperback 9.93347 -1.77804 -1.82108
thorax -8.60358 -1.30665 -1.39429
lowerneck 2.54065 0.464071 2.04355
upperneck -28.0723 0.36257 1.58363
head -9.20761 -0.676855 0.239452
rclavicle 1.90833e-014 1.69961e-014
rhumerus -29.4616 1.12692 -88.8021
rradius 42.956
rwrist -3.38922
rhand -19.2004 -8.49513
rfingers 7.12502
rthumb 7.11169 -38.3556
lclavicle 1.90833e-014 1.69961e-014
lhumerus -26.228 -2.08517 82.3939
lradius 41.3785
lwrist 25.6644
lhand -19.1082 12.267
lfingers 7.12502
lthumb 7.2007 42.1245
rfemur -72.8846 -2.83092 14.9811
rtibia 80.0407
rfoot 6.90596 -3.45638
rtoes -11.4335
lfemur -61.3072 13.1056 -31.5167
ltibia 79.3486
lfoot 7.13712 -0.424251
ltoes -32.1999
441
root 40.2452 15.1752 -5.2043 -51.9853 -86.9311 65.0268
lowerback 40.8143 -0.380081 0.567958
upperback 9.95003 -1.78167 -1.80087
thorax -8.59173 -1.30882 -1.4089
lowerneck 2.49529 0.434338 2.07579
upperneck -28.1152 0.314087 1.56754
head -9.21462 -0.704283 0.233038
rclavicle -1.14301e-014 -2.77305e-014
rhumerus -29.4206 1.08401 -88.7665
rradius 42.8758
rwrist -3.36683
rhand -19.1581 -8.5385
rfingers 7.12502
rthumb 7.15255 -38.3976
lclavicle -1.14301e-014 -2.77305e-014
lhumerus -26.2334 -2.1051 82.4297
lradius 41.3999
lwrist 25.6819
lhand -19.1014 12.2191
lfingers 7.12502
lthumb 7.20732 42.0764
rfemur -72.895 -2.70469 14.7491
rtibia 78.4525
rfoot 7.13935 -3.76341
rtoes -11.3892
lfemur -60.9624 13.1716 -31.5367
ltibia 79.3789
lfoot 7.12516 -0.00591346
ltoes -32.0437
442
root 40.162 15.1871 -5.21513 -50.0736 -86.8606 63.0958
lowerback 40.8444 -0.404781 0.623493
upperback 9.96542 -1.78701 -1.77552
thorax -8.58388 -1.31188 -1.40829
lowerneck 2.46142 0.404977 2.09309
upperneck -28.1771 0.266164 1.55921
head -9.23062 -0.731499 0.232078
rclavicle 9.64106e-015 1.12313e-014
rhumerus -29.3698 1.07026 -88.7316
rradius 42.8044
rwrist -3.35026
rhand -19.1096 -8.60343
rfingers 7.12502
rthumb 7.19936 -38.461
lclavicle 9.64106e-015 1.12313e-014
lhumerus -26.2419 -2.1076 82.4594
lradius 41.4317
lwrist 25.7071
lhand -19.0639 12.1679
lfingers 7.12502
lthumb 7.24349 42.0239
rfemur -72.8792 -2.57506 14.5059
rtibia 76.8613
rfoot 7.45128 -4.19205
rtoes -11.2134
lfemur -60.6348 13.2474 -31.5607
ltibia 79.4024
lfoot 7.14443 0.429799
ltoes -31.8515
443
root 40.0787 15.1997 -5.22769 -48.2458 -86.7879 61.2584
lowerback 40.8813 -0.423272 0.660637
upperback 9.97956 -1.79146 -1.74421
thorax -8.57883 -1.31465 -1.39202
lowerneck 2.44201 0.375498 2.09625
upperneck -28.255 0.218727 1.55917
head -9.25511 -0.75846 0.236606
rclavicle 2.00773e-014 9.93923e-016
rhumerus -29.3136 1.07603 -88.6957
rradius 42.7426
rwrist -3.33454
rhand -19.0605 -8.66535
rfingers 7.12502
rthumb 7.24674 -38.5213
lclavicle 2.00773e-014 9.93923e-016
lhumerus -26.2533 -2.09683 82.4837
lradius 41.4704
lwrist 25.7451
lhand -19.0302 12.0724
lfingers 7.12502
lthumb 7.27599 41.9273
rfemur -72.8393 -2.43755 14.2537
rtibia 75.2792
rfoot 7.80414 -4.71474
rtoes -10.9754
lfemur -60.3169 13.3346 -31.5803
ltibia 79.4174
lfoot 7.17593 0.86257
ltoes -31.6382
444
root 39.9948 15.2133 -5.24169 -46.4522 -86.7143 59.4634
lowerback 40.9236 -0.437901 0.693561
upperback 9.99243 -1.79274 -1.71178
thorax -8.57666 -1.31596 -1.37356
lowerneck 2.43691 0.342566 2.09555
upperneck -28.3441 0.167956 1.5653
head -9.28635 -0.787553 0.244392
rclavicle -2.10712e-014 -1.63997e-014
rhumerus -29.262 1.08072 -88.6613
rradius 42.6988
rwrist -3.31978
rhand -19.0125 -8.73575
rfingers 7.12502
rthumb 7.29309 -38.5901
lclavicle -2.10712e-014 -1.63997e-014
lhumerus -26.2652 -2.09319 82.5024
lradius 41.504
lwrist 25.7866
lhand -19.003 11.974
lfingers 7.12502
lthumb 7.30227 41.828
rfemur -72.7739 -2.30004 13.9986
rtibia 73.7177
rfoot 8.1868 -5.26501
rtoes -10.7305
lfemur -59.9971 13.4244 -31.5851
ltibia 79.4212
lfoot 7.20073 1.28024
ltoes -31.4121
